<?xml version="1.0" encoding="UTF-8"?>
<svg id="Layer_2" data-name="Layer 2" xmlns="http://www.w3.org/2000/svg" viewBox="0 0 573.37 212.7">
  <defs>
    <style>
      .cls-1 {
        fill: #00afa0;
      }

      .cls-1, .cls-2 {
        stroke-width: 0px;
      }

      .cls-2 {
        fill: #3c5ca9;
      }
    </style>
  </defs>
  <g id="Capa_1" data-name="Capa 1">
    <g>
      <path class="cls-1" d="M93.91,67.55c-4.99-4.98-10.81-8.91-17.48-11.77-6.67-2.86-13.82-4.29-21.44-4.29s-14.77,1.43-21.44,4.29c-6.67,2.86-12.5,6.78-17.48,11.77-4.99,4.99-8.91,10.81-11.77,17.48-2.86,6.67-4.29,13.82-4.29,21.44s1.43,14.55,4.29,21.22c2.86,6.67,6.78,12.5,11.77,17.48,4.98,4.98,10.81,8.94,17.48,11.87,6.67,2.94,13.82,4.4,21.44,4.4,2.2,0,6.6-.51,13.2-1.54l10.66-2.04-6.04-22.95-9.9,2.78c-1.32.29-2.6.51-3.85.66-1.25.15-2.6.22-4.07.22-4.4,0-8.54-.84-12.43-2.53-3.89-1.68-7.3-3.99-10.23-6.93-2.93-2.93-5.24-6.34-6.93-10.23-1.69-3.88-2.53-8.03-2.53-12.42s.84-8.8,2.53-12.76c1.68-3.96,3.99-7.4,6.93-10.34,2.93-2.93,6.34-5.24,10.23-6.93,3.88-1.68,8.03-2.53,12.43-2.53s8.54.85,12.43,2.53c3.88,1.69,7.29,4,10.23,6.93,2.93,2.93,5.24,6.38,6.93,10.34,1.68,3.96,2.53,8.21,2.53,12.76v54.98h22.87v-54.98c0-7.62-1.43-14.77-4.29-21.44-2.86-6.67-6.78-12.5-11.77-17.48Z"/>
      <polygon class="cls-1" points="118.57 161.46 141.44 161.46 141.44 .04 118.57 22.91 118.57 161.46"/>
      <path class="cls-1" d="M242.28,67.55c-4.99-4.98-10.81-8.91-17.48-11.77-6.67-2.86-13.82-4.29-21.44-4.29s-14.77,1.43-21.44,4.29c-6.67,2.86-12.5,6.78-17.48,11.77-4.99,4.99-8.91,10.81-11.77,17.48-2.86,6.67-4.29,13.82-4.29,21.44s1.43,14.55,4.29,21.22c2.86,6.67,6.78,12.5,11.77,17.48,4.98,4.98,10.81,8.94,17.48,11.87,6.67,2.94,13.82,4.4,21.44,4.4,2.2,0,6.6-.51,13.2-1.54l10.66-2.04-6.04-22.95-9.9,2.78c-1.32.29-2.6.51-3.85.66-1.25.15-2.6.22-4.07.22-4.4,0-8.54-.84-12.43-2.53-3.89-1.68-7.3-3.99-10.23-6.93-2.93-2.93-5.24-6.34-6.93-10.23-1.69-3.88-2.53-8.03-2.53-12.42s.84-8.8,2.53-12.76c1.68-3.96,3.99-7.4,6.93-10.34,2.93-2.93,6.34-5.24,10.23-6.93,3.88-1.68,8.03-2.53,12.43-2.53s8.54.85,12.43,2.53c3.88,1.69,7.29,4,10.23,6.93,2.93,2.93,5.24,6.38,6.93,10.34,1.68,3.96,2.53,8.21,2.53,12.76v54.98h22.87v-54.98c0-7.62-1.43-14.77-4.29-21.44-2.86-6.67-6.78-12.5-11.77-17.48Z"/>
      <path class="cls-1" d="M352.53,51.28c-7.48,0-14.52,1.43-21.11,4.29-6.6,2.86-12.35,6.78-17.26,11.77-4.91,4.99-8.8,10.78-11.66,17.37-2.86,6.6-4.36,13.64-4.51,21.11,0,4.4-.85,8.54-2.53,12.42-1.69,3.89-3.96,7.26-6.82,10.12-2.86,2.86-6.23,5.13-10.12,6.82-3.89,1.69-8.03,2.53-12.43,2.53v23.53c7.48,0,14.55-1.43,21.22-4.29,6.67-2.86,12.54-6.74,17.59-11.66,5.06-4.91,9.05-10.63,11.99-17.15,2.93-6.52,4.47-13.53,4.62-21,0-4.4.84-8.54,2.53-12.42,1.68-3.88,3.96-7.33,6.82-10.34,2.86-3,6.23-5.35,10.12-7.04,3.88-1.68,8.03-2.53,12.43-2.53l-.88-23.53Z"/>
      <path class="cls-1" d="M550.5,106.48c0,4.55-.85,8.76-2.53,12.65-1.69,3.89-4,7.26-6.93,10.12-2.93,2.86-6.34,5.13-10.23,6.82-3.89,1.69-8.03,2.53-12.43,2.53s-8.54-.84-12.43-2.53c-3.89-1.68-7.3-3.99-10.23-6.93-2.93-2.93-5.24-6.34-6.93-10.23-1.69-3.88-2.53-8.03-2.53-12.42s.84-8.54,2.53-12.43c1.68-3.88,3.99-7.29,6.93-10.23,2.93-2.93,6.34-5.24,10.23-6.93,3.88-1.68,8.03-2.53,12.43-2.53s8.28.77,12.1,2.31c3.81,1.54,7.11,3.56,9.9,6.05l-31.15,31.99h30.35l32.25-32.21-14.95-15.39-.44-.44c-4.99-4.69-10.7-8.39-17.15-11.11-6.45-2.71-13.42-4.07-20.89-4.07s-14.77,1.43-21.44,4.29c-6.67,2.86-12.5,6.78-17.48,11.77-4.99,4.99-8.91,10.81-11.77,17.48-2.86,6.67-4.29,13.82-4.29,21.44s1.43,14.77,4.29,21.44c2.86,6.67,6.78,12.5,11.77,17.48,4.98,4.98,10.81,8.91,17.48,11.77,6.67,2.86,13.82,4.29,21.44,4.29s14.77-1.43,21.44-4.29c6.67-2.86,12.5-6.78,17.48-11.77,4.98-4.98,8.91-10.81,11.77-17.48,2.86-6.67,4.29-13.82,4.29-21.44h-22.87Z"/>
      <path class="cls-1" d="M453.95,85.26c-2.93-6.67-6.89-12.5-11.88-17.48-4.99-4.98-10.85-8.94-17.59-11.88-6.75-2.93-13.86-4.4-21.33-4.4s-14.77,1.47-21.44,4.4c-6.67,2.94-12.46,6.89-17.37,11.88-4.91,4.99-8.8,10.81-11.66,17.48-2.86,6.67-4.29,13.74-4.29,21.22v83.57l22.43,22.65v-106.22c0-4.4.84-8.54,2.53-12.43,1.68-3.88,3.99-7.29,6.93-10.23,2.93-2.93,6.38-5.24,10.34-6.93,3.96-1.68,8.14-2.53,12.54-2.53s8.58.85,12.54,2.53c3.96,1.69,7.4,4,10.34,6.93,2.93,2.93,5.24,6.34,6.93,10.23,1.68,3.89,2.53,8.03,2.53,12.43s-.85,8.8-2.53,12.76c-1.69,3.96-4,7.41-6.93,10.34-2.93,2.94-6.38,5.24-10.34,6.93-3.96,1.69-8.14,2.53-12.54,2.53-2.93,0-5.57-.44-7.92-1.32h0c-3.66-1.14-10.55-4.77-10.55-4.77l-7.14,21.49s4.95,3.32,12.2,5.5c4.1,1.03,8.58,1.54,13.42,1.54,7.48,0,14.59-1.43,21.33-4.29,6.74-2.86,12.61-6.78,17.59-11.77,4.98-4.98,8.94-10.81,11.88-17.48,2.93-6.67,4.4-13.82,4.4-21.44s-1.47-14.55-4.4-21.22Z"/>
    </g>
    <g>
      <path class="cls-2" d="M181.37,18.29c-1.52,1.4-3.88,2.28-6.14,2.28-6.12,0-8.34-3.9-8.37-7.55-.02-2.08.76-4.06,2.13-5.45,1.49-1.5,3.65-2.3,6.25-2.3,2.29,0,4.38.75,5.89,2.11l.33.3,3.99-3.55-.41-.37c-2.71-2.46-6.09-3.76-9.8-3.76-4.34,0-7.99,1.36-10.54,3.93-2.35,2.37-3.64,5.6-3.62,9.1.04,5.88,3.76,12.75,14.16,12.75,3.99,0,7.5-1.27,10.13-3.66l.4-.36-4.05-3.77-.34.31Z"/>
      <path class="cls-2" d="M200.78,0c-9.45,0-13.75,6.75-13.75,13.02s4.25,12.75,13.75,12.75,13.64-6.42,13.72-12.78c.04-3.45-1.27-6.78-3.6-9.14-2.49-2.52-5.99-3.85-10.12-3.85ZM194.94,7.28c1.41-1.45,3.43-2.21,5.84-2.21s4.37.73,5.78,2.17c1.41,1.44,2.19,3.55,2.15,5.81-.07,3.68-2.19,7.62-7.93,7.62s-7.87-3.92-7.97-7.59c-.06-2.23.71-4.34,2.13-5.79Z"/>
      <path class="cls-2" d="M230.6,0c-9.45,0-13.75,6.75-13.75,13.02s4.25,12.75,13.75,12.75,13.64-6.42,13.72-12.78c.04-3.45-1.27-6.78-3.6-9.14-2.49-2.52-5.99-3.85-10.12-3.85ZM224.76,7.28c1.41-1.45,3.43-2.21,5.84-2.21s4.37.73,5.78,2.17c1.41,1.44,2.19,3.55,2.15,5.81-.07,3.68-2.19,7.62-7.93,7.62s-7.86-3.92-7.97-7.59c-.06-2.23.71-4.34,2.13-5.79Z"/>
      <path class="cls-2" d="M260.46.44c-2.03,0-4.05,0-6.08.02-2.02,0-4.05.02-6.07.02h-.5v24.75h5.86v-6.99h6.79c3.06,0,5.63-.96,7.45-2.77,1.62-1.62,2.51-3.79,2.51-6.12,0-4.29-3.12-8.91-9.96-8.91ZM263.6,11.97c-.75.76-1.83,1.16-3.14,1.16h-6.79v-7.42h6.79c2.85,0,4.15,1.93,4.15,3.72,0,.97-.36,1.87-1.02,2.54Z"/>
      <polygon class="cls-2" points="273.55 25.23 293.84 25.23 293.84 19.82 279.37 19.82 279.37 15.46 293.33 15.46 293.33 10.28 279.37 10.28 279.37 5.82 293.84 5.82 293.84 .47 273.55 .47 273.55 25.23"/>
      <path class="cls-2" d="M320.09,8.85c0-4.01-3.06-8.34-9.78-8.37-2.04,0-4.09,0-6.13-.02-2.04,0-4.09-.02-6.13-.02h-.5v24.79h5.86v-7.94h3.96l7.51,7.94h6.49v-1.01l-7.33-7.62c3.85-1.03,6.04-3.81,6.04-7.76ZM314.23,8.95c0,1.52-1.03,3.3-3.92,3.3h-6.9v-6.6h6.9c2.89,0,3.92,1.78,3.92,3.3Z"/>
      <path class="cls-2" d="M335.15.47l-12.05,24.75h6.37l2.21-4.48h12.85l2.17,4.48h6.41L341.08.47h-5.93ZM342.11,15.58h-8l4-8.45,4,8.45Z"/>
      <polygon class="cls-2" points="349.21 5.55 357.39 5.55 357.39 25.23 363.24 25.23 363.24 5.55 371.42 5.55 371.42 .47 349.21 .47 349.21 5.55"/>
      <rect class="cls-2" x="374.32" y=".47" width="5.82" height="24.75"/>
      <polygon class="cls-2" points="404.05 .47 396.58 18.18 389.14 .47 382.59 .47 393.75 25.33 399.44 25.33 410.6 .47 404.05 .47"/>
      <path class="cls-2" d="M428.26.47h-5.93l-12.05,24.75h6.37l2.21-4.48h12.85l2.17,4.48h6.41L428.26.47ZM429.3,15.58h-8l4-8.45,4,8.45Z"/>
    </g>
  </g>
</svg>